
<svg
  version="1.0"
  xmlns="http://www.w3.org/2000/svg"
  xmlns:xlink="http://www.w3.org/1999/xlink"
  width="2400"
  height="1800"
>
  
  <rect
    x="0"
    y="0"
    width="100%"
    height="100%"
    fill="#ffffff"
    fill-opacity="1"
  ></rect>
  <svg
    version="1.0"
    xmlns="http://www.w3.org/2000/svg"
    xmlns:xlink="http://www.w3.org/1999/xlink"
    x="0"
    y="0"
    width="2400"
    height="1800"
    viewBox="0 0 340.000000 250.000000"
    preserveAspectRatio="xMidYMid meet"
    color-interpolation-filters="sRGB"
  >
    <defs><linearGradient id="92" x1="0%" y1="0%" x2="100%" y2="0%"><stop offset="0%" stop-color="#fa71cd"/> <stop offset="100%" stop-color="#9b59b6"/></linearGradient><linearGradient id="93" x1="0%" y1="0%" x2="100%" y2="0%"><stop offset="0%" stop-color="#f9d423"/> <stop offset="100%" stop-color="#f83600"/></linearGradient><linearGradient id="94" x1="0%" y1="0%" x2="100%" y2="0%"><stop offset="0%" stop-color="#0064d2"/> <stop offset="100%" stop-color="#1cb0f6"/></linearGradient><linearGradient id="95" x1="0%" y1="0%" x2="100%" y2="0%"><stop offset="0%" stop-color="#f00978"/> <stop offset="100%" stop-color="#3f51b1"/></linearGradient><linearGradient id="96" x1="0%" y1="0%" x2="100%" y2="0%"><stop offset="0%" stop-color="#7873f5"/> <stop offset="100%" stop-color="#ec77ab"/></linearGradient><linearGradient id="97" x1="0%" y1="0%" x2="100%" y2="0%"><stop offset="0%" stop-color="#f9d423"/> <stop offset="100%" stop-color="#e14fad"/></linearGradient><linearGradient id="98" x1="0%" y1="0%" x2="100%" y2="0%"><stop offset="0%" stop-color="#009efd"/> <stop offset="100%" stop-color="#2af598"/></linearGradient><linearGradient id="99" x1="0%" y1="0%" x2="100%" y2="0%"><stop offset="0%" stop-color="#ffcc00"/> <stop offset="100%" stop-color="#00b140"/></linearGradient><linearGradient id="100" x1="0%" y1="0%" x2="100%" y2="0%"><stop offset="0%" stop-color="#d51007"/> <stop offset="100%" stop-color="#ff8177"/></linearGradient><linearGradient id="102" x1="0%" y1="0%" x2="100%" y2="0%"><stop offset="0%" stop-color="#a2b6df"/> <stop offset="100%" stop-color="#0c3483"/></linearGradient><linearGradient id="103" x1="0%" y1="0%" x2="100%" y2="0%"><stop offset="0%" stop-color="#7ac5d8"/> <stop offset="100%" stop-color="#eea2a2"/></linearGradient><linearGradient id="104" x1="0%" y1="0%" x2="100%" y2="0%"><stop offset="0%" stop-color="#00ecbc"/> <stop offset="100%" stop-color="#007adf"/></linearGradient><linearGradient id="105" x1="0%" y1="0%" x2="100%" y2="0%"><stop offset="0%" stop-color="#b88746"/> <stop offset="100%" stop-color="#fdf5a6"/></linearGradient></defs> <g fill="#08a7bc" class="icon-text-wrapper icon-svg-group iconsvg" transform="translate(87.81999969482422,95.71627998352051)"><g class="iconsvg-imagesvg" transform="translate(0,0)"><g><rect fill="#08a7bc" fill-opacity="0" stroke-width="2" x="0" y="0" width="60" height="58.56744040762939" class="image-rect"/> <svg x="0" y="0" width="60" height="58.56744040762939" filtersec="colorsb3110486313" class="image-svg-svg primary" style="overflow: visible;"><svg viewBox="0 0 326.468994140625 318.67498779296875" xmlns="http://www.w3.org/2000/svg"><path fill="none" pointer-events="none" d="M0 0h326.469v318.675H0z"/><path class="st1" d="M13.433 160.296c0 83.2 67.5 150.7 150.7 150.7 83.2 0 150.7-67.5 150.7-150.7 0-83.2-67.5-150.7-150.7-150.7-83.2.1-150.7 67.5-150.7 150.7zm241.1 0c0 49.9-40.5 90.4-90.4 90.4-49.9 0-90.4-40.5-90.4-90.4 0-49.9 40.5-90.4 90.4-90.4 49.9 0 90.4 40.5 90.4 90.4z" fill="#03bfd7"/><path class="st1" d="M314.833 160.296c0-83.2-67.5-150.7-150.7-150.7s-150.7 67.5-150.7 150.7c0-74.9 60.7-135.6 135.6-135.6s135.6 60.7 135.6 135.6c0 58.3-47.2 105.5-105.5 105.5s-105.5-47.2-105.5-105.5c0 66.6 54 120.5 120.5 120.5 66.7.1 120.7-53.9 120.7-120.5z" fill="#03bfd7"/><path class="st1" d="M13.433 160.296c0 83.2 67.5 150.7 150.7 150.7s150.7-67.4 150.7-150.7c0 74.9-60.7 135.6-135.6 135.6-74.9 0-135.6-60.7-135.6-135.6 0-58.3 47.2-105.5 105.5-105.5s105.5 47.2 105.5 105.5c0-66.6-54-120.5-120.5-120.5-66.7 0-120.7 54-120.7 120.5z" fill="#03bfd7"/><path class="st2" d="M314.833 160.296c0-83.2-67.5-150.7-150.7-150.7s-150.7 67.5-150.7 150.7c0-74.9 60.7-135.6 135.6-135.6s135.6 60.7 135.6 135.6c0 58.3-47.2 105.5-105.5 105.5s-105.5-47.2-105.5-105.5c0 66.6 54 120.5 120.5 120.5 66.7.1 120.7-53.9 120.7-120.5z" fill="#78cfe1"/><path class="st3" d="M13.433 160.296c0 83.2 67.5 150.7 150.7 150.7s150.7-67.4 150.7-150.7c0 74.9-60.7 135.6-135.6 135.6-74.9 0-135.6-60.7-135.6-135.6 0-58.3 47.2-105.5 105.5-105.5s105.5 47.2 105.5 105.5c0-66.6-54-120.5-120.5-120.5-66.7 0-120.7 54-120.7 120.5z" fill="#08a7bc"/></svg></svg> </g></g> <g transform="translate(67,12.475399017333984)"><g fill-rule="" class="tp-name iconsvg-namesvg" transform="translate(0,0)"><g transform="scale(1)"><g><path d="M1.37-9.69L1.37-8.79C1.37-8.29 1.66-8 2.16-8L4.17-8C4.57-8 4.73-7.76 4.57-7.39L1.77-0.92C1.53-0.37 1.8 0 2.38 0L5.73 0C6.18 0 6.47-0.21 6.65-0.61L9.66-7.6C9.77-7.87 10-8 10.3-8L13.86-8C14.2-8 14.39-7.81 14.39-7.47L14.39-0.77C14.39-0.26 14.68 0.03 15.18 0.03L22.15 0C22.65 0 22.94-0.29 22.94-0.79L22.94-3.43C22.94-4.14 22.46-4.33 21.96-3.83L21.36-3.22C21.14-3.01 20.99-2.96 20.72-2.96L19.96-2.96C19.61-2.96 19.43-3.14 19.43-3.48L19.4-7.47C19.4-7.81 19.59-8 19.93-8L21.65-8C22.15-8 22.44-8.29 22.44-8.79L22.44-9.69C22.44-10.19 22.15-10.48 21.65-10.48L15.44-10.48C15.1-10.48 14.91-10.66 14.91-11.01L14.91-17.95C14.91-18.45 14.62-18.74 14.12-18.74L10.03-18.74C9.4-18.74 9.16-18.32 9.5-17.79L9.71-17.45C9.85-17.21 9.9-17.05 9.9-16.82L9.9-11.01C9.9-10.66 9.71-10.48 9.37-10.48L2.16-10.48C1.66-10.48 1.37-10.19 1.37-9.69ZM16.84-11.25L19.48-11.25C19.93-11.25 20.22-11.43 20.35-11.91L21.67-16.6C21.83-17.13 21.57-17.5 21.01-17.5L17.58-17.5C16.97-17.5 16.74-17.08 17-16.55L17.08-16.39C17.21-16.16 17.24-15.92 17.16-15.68L16.16-12.14C16-11.61 16.29-11.25 16.84-11.25ZM6.47-17.5L3.48-17.5C2.85-17.5 2.64-17.08 2.98-16.55L3.04-16.45C3.17-16.26 3.25-16.08 3.3-15.86L4.46-11.91C4.59-11.46 4.88-11.25 5.33-11.25L7.97-11.25C8.53-11.25 8.82-11.61 8.66-12.14L7.34-16.84C7.21-17.32 6.92-17.5 6.47-17.5ZM27.21-8.08L27.21-5.12C27.21-4.62 27.5-4.33 28-4.33L30.75-4.33C31.09-4.33 31.28-4.14 31.28-3.8L31.3-1.72C31.3-1.43 31.23-1.29 31.04-1.08L30.59-0.58C30.22-0.16 30.51 0.21 31.2 0.21L33.2 0.21C34.34 0.21 35.24-0.5 35.24-1.53L35.21-3.8C35.21-4.14 35.4-4.33 35.74-4.33L38.33-4.33C38.83-4.33 39.12-4.62 39.12-5.12L39.12-8.08C39.12-8.58 38.83-8.87 38.33-8.87L28-8.87C27.5-8.87 27.21-8.58 27.21-8.08ZM28.11-12.25L38.35-12.25C38.85-12.25 39.14-12.54 39.14-13.04L39.14-17.48C39.14-17.98 38.85-18.27 38.35-18.27L27.45-18.27C26.82-18.27 26.58-17.84 26.92-17.32L27.13-16.97C27.27-16.74 27.32-16.58 27.32-16.34L27.32-13.04C27.32-12.54 27.61-12.25 28.11-12.25ZM45.08-0.48L47.78-4.78C48.12-5.31 47.88-5.73 47.25-5.73L44.48-5.73C44.05-5.73 43.74-5.57 43.53-5.2L40.83-0.9C40.49-0.37 40.73 0.05 41.36 0.05L44.13 0.05C44.56 0.05 44.87-0.11 45.08-0.48ZM27-10.45L27-10.22C27-9.71 27.29-9.42 27.79-9.42L38.83-9.42C39.33-9.42 39.62-9.71 39.62-10.22L39.62-10.45C39.62-10.95 39.33-11.25 38.83-11.25L36.14-11.25C35.79-11.25 35.61-11.38 35.61-11.59 35.61-11.8 35.32-11.93 34.82-11.93L31.91-11.93C31.59-11.93 31.38-11.83 31.25-11.67 31.07-11.4 30.96-11.25 30.67-11.25L27.79-11.25C27.29-11.25 27-10.95 27-10.45ZM45.19-13.73L47.78-17.82C48.12-18.35 47.88-18.77 47.25-18.77L44.45-18.77C44.03-18.77 43.74-18.58 43.5-18.24L40.91-14.15C40.57-13.62 40.81-13.2 41.44-13.2L44.24-13.2C44.66-13.2 44.95-13.38 45.19-13.73ZM45.19-7.21L47.78-11.3C48.12-11.83 47.88-12.25 47.25-12.25L44.5-12.25C44.08-12.25 43.79-12.06 43.55-11.72L40.97-7.63C40.62-7.1 40.86-6.68 41.49-6.68L44.24-6.68C44.66-6.68 44.95-6.86 45.19-7.21ZM27.53-3.06L27.24-1.32C27.16-0.79 27.42-0.48 27.95-0.48L29.4-0.48C29.88-0.48 30.2-0.69 30.27-1.19L30.57-2.93C30.64-3.48 30.35-3.77 29.83-3.77L28.4-3.77C27.93-3.77 27.61-3.56 27.53-3.06ZM36.16-2.93L36.45-1.19C36.53-0.69 36.85-0.48 37.32-0.48L38.75-0.48C39.28-0.48 39.57-0.77 39.49-1.32L39.2-3.06C39.12-3.56 38.8-3.77 38.33-3.77L36.87-3.77C36.35-3.77 36.06-3.48 36.16-2.93ZM31.17-6.6C31.17-6.92 31.36-7.07 31.7-7.07L34.66-7.07C35-7.07 35.18-6.89 35.18-6.6 35.18-6.31 35-6.12 34.66-6.12L31.7-6.12C31.36-6.12 31.17-6.31 31.17-6.6ZM31.65-16.71L34.82-16.71C35.16-16.71 35.34-16.58 35.34-16.39 35.34-16.21 35.16-16.08 34.82-16.08L31.65-16.08C31.3-16.08 31.12-16.21 31.12-16.39 31.12-16.58 31.3-16.71 31.65-16.71ZM31.12-14.28C31.12-14.49 31.3-14.6 31.65-14.6L34.82-14.6C35.16-14.6 35.34-14.47 35.34-14.28 35.34-14.1 35.16-13.96 34.82-13.96L31.65-13.96C31.3-13.96 31.12-14.1 31.12-14.28ZM66.89 0.24L70.84 0.24C71.87 0.24 72.64-0.48 72.64-1.5L72.64-10.48C72.64-10.98 72.35-11.27 71.85-11.27L60.05-11.27C59.68-11.27 59.49-11.51 59.57-11.85L59.97-13.78C60.02-14.1 60.23-14.25 60.55-14.25L72.85-14.25C73.35-14.25 73.64-14.55 73.64-15.05L73.64-15.97C73.64-16.47 73.35-16.76 72.85-16.76L65.64-16.76C65.3-16.76 65.12-16.95 65.12-17.29L65.12-17.98C65.12-18.48 64.83-18.77 64.32-18.77L60.23-18.77C59.6-18.77 59.36-18.35 59.7-17.82L59.92-17.48C60.05-17.24 60.1-17.11 60.1-16.97 60.1-16.84 59.92-16.76 59.57-16.76L52.37-16.76C51.86-16.76 51.57-16.47 51.57-15.97L51.57-15.05C51.57-14.55 51.86-14.25 52.37-14.25L54.48-14.25C54.85-14.25 55.03-14.02 54.95-13.67L52.26-0.63C52.16-0.11 52.42 0.24 52.97 0.24L56.38 0.24C56.85 0.24 57.14-0.03 57.25-0.48L58.86-8.29C58.91-8.61 59.12-8.76 59.44-8.76L67.1-8.76C67.44-8.76 67.62-8.58 67.62-8.24L67.65-2.59C67.65-2.32 67.57-2.14 67.41-1.93L66.41-0.74C65.99-0.21 66.23 0.24 66.89 0.24Z" transform="translate(-1.3700000047683716, 18.770000457763672)"/></g> <g fill="#08a7bc" transform="translate(75.2699966430664,0)"><g transform="scale(1)"><path d="M2.96 0.18L6.39 0.18C6.89 0.18 7.18-0.08 7.21-0.58L7.63-7.21C7.66-7.52 7.84-7.71 8.16-7.71L16.63-7.71C16.97-7.71 17.16-7.52 17.16-7.18L17.18-2.64C17.18-2.38 17.11-2.19 16.95-1.98L15.94-0.79C15.52-0.26 15.76 0.18 16.42 0.18L20.38 0.18C21.41 0.18 22.17-0.11 22.17-0.71L22.15-7.18C22.15-7.52 22.33-7.71 22.68-7.71 23.02-7.71 23.2-8 23.2-8.5L23.2-9.77C23.2-10.27 22.91-10.56 22.41-10.56 22.25-10.56 22.17-10.74 22.17-11.09L22.17-16.52C22.17-17.03 21.88-17.32 21.38-17.32L14.49-17.32C14.07-17.32 13.91-17.61 14.15-17.95L14.2-18.03C14.47-18.43 14.15-18.74 13.52-18.74L8.98-18.74C8.34-18.74 8.1-18.32 8.45-17.79 8.55-17.63 8.58-17.5 8.53-17.45 8.47-17.37 8.29-17.32 8.02-17.32L3.33-17.32C2.72-17.32 2.48-16.89 2.8-16.37L3.01-15.97C3.14-15.76 3.19-15.55 3.17-15.31L2.88-11.06C2.85-10.74 2.67-10.56 2.35-10.56L1.9-10.56C1.4-10.56 1.11-10.27 1.11-9.77L1.11-8.5C1.11-8 1.4-7.71 1.9-7.71L2.11-7.71C2.45-7.71 2.67-7.52 2.64-7.15L2.19-0.63C2.16-0.11 2.43 0.18 2.96 0.18ZM8.63-14.76L16.63-14.76C16.97-14.76 17.16-14.57 17.16-14.23L17.16-11.09C17.16-10.74 16.97-10.56 16.63-10.56L8.39-10.56C8.05-10.56 7.84-10.74 7.87-11.11L8.1-14.25C8.13-14.57 8.32-14.76 8.63-14.76ZM11.8-3.19L15.26-3.19C15.84-3.19 16.1-3.56 15.89-4.12L14.89-6.6C14.73-7.02 14.44-7.21 13.99-7.21L10.61-7.21C10.03-7.21 9.77-6.86 9.98-6.31L10.88-3.83C11.03-3.38 11.35-3.19 11.8-3.19ZM11.46-11.01L14.97-11.01C15.6-11.01 15.84-11.43 15.5-11.96L14.36-13.78C14.15-14.15 13.83-14.31 13.41-14.31L10.24-14.31C9.64-14.31 9.4-13.94 9.66-13.38L10.53-11.59C10.72-11.19 11.03-11.01 11.46-11.01Z" transform="translate(-1.1100000143051147, 18.770000457763672)"/></g></g></g></g> <g fill-rule="" class="tp-slogan iconsvg-slogansvg" fill="#08a7bc" transform="translate(1.7250022888183594,25.01000213623047)"> <g transform="scale(1, 1)"><g transform="scale(1)"><path d="M6.45 0L0.91 0L0.91-8.45L3.20-8.45L3.20-1.84L6.45-1.84L6.45 0ZM12.55-8.45L14.83-8.45L14.83-3.36Q14.83-1.71 13.89-0.79Q12.95 0.12 11.18 0.12L11.18 0.12Q9.45 0.12 8.53-0.77Q7.60-1.65 7.60-3.31L7.60-3.31L7.60-8.45L9.89-8.45L9.89-3.49Q9.89-2.60 10.23-2.19Q10.56-1.79 11.22-1.79L11.22-1.79Q11.92-1.79 12.23-2.19Q12.55-2.59 12.55-3.50L12.55-3.50L12.55-8.45ZM22.30 0L20.13 0L18.40-6.09L18.35-6.09Q18.47-4.53 18.47-3.67L18.47-3.67L18.47 0L16.45 0L16.45-8.45L19.49-8.45L21.25-2.45L21.30-2.45L23.02-8.45L26.07-8.45L26.07 0L23.97 0L23.97-3.71Q23.97-3.99 23.98-4.35Q23.99-4.70 24.06-6.08L24.06-6.08L24.01-6.08L22.30 0ZM35.41 0L32.92 0L32.50-1.58L29.76-1.58L29.33 0L26.82 0L29.58-8.49L32.62-8.49L35.41 0ZM30.23-3.46L32.03-3.46L31.66-4.84Q31.54-5.31 31.35-6.04Q31.17-6.78 31.11-7.09L31.11-7.09Q31.06-6.80 30.91-6.12Q30.76-5.45 30.23-3.46L30.23-3.46ZM39.03-3.08L38.45-3.08L38.45 0L36.17 0L36.17-8.45L38.94-8.45Q42.38-8.45 42.38-5.95L42.38-5.95Q42.38-4.49 40.95-3.68L40.95-3.68L43.41 0L40.82 0L39.03-3.08ZM38.45-6.72L38.45-4.79L38.88-4.79Q40.08-4.79 40.08-5.85L40.08-5.85Q40.08-6.72 38.90-6.72L38.90-6.72L38.45-6.72ZM48.62-4.67L51.24 0L48.66 0L46.99-3.23L46.32-2.83L46.32 0L44.02 0L44.02-8.45L46.32-8.45L46.32-4.78Q46.49-5.12 47.02-5.86L47.02-5.86L48.79-8.45L51.29-8.45L48.62-4.67ZM68.42 0L65.93 0L65.51-1.58L62.76-1.58L62.34 0L59.83 0L62.59-8.49L65.63-8.49L68.42 0ZM63.24-3.46L65.04-3.46L64.67-4.84Q64.55-5.31 64.36-6.04Q64.18-6.78 64.12-7.09L64.12-7.09Q64.07-6.80 63.92-6.12Q63.76-5.45 63.24-3.46L63.24-3.46ZM71.47 0L69.18 0L69.18-8.45L71.47-8.45L71.47 0ZM78.68 0L73.14 0L73.14-8.45L75.42-8.45L75.42-1.84L78.68-1.84L78.68 0ZM87.55 0L85.06 0L84.64-1.58L81.89-1.58L81.47 0L78.96 0L81.72-8.49L84.76-8.49L87.55 0ZM82.37-3.46L84.17-3.46L83.80-4.84Q83.67-5.31 83.49-6.04Q83.31-6.78 83.25-7.09L83.25-7.09Q83.20-6.80 83.05-6.12Q82.89-5.45 82.37-3.46L82.37-3.46ZM88.31 0L88.31-8.45L91.26-8.45Q92.98-8.45 93.81-7.94Q94.65-7.43 94.65-6.35L94.65-6.35Q94.65-5.64 94.28-5.13Q93.92-4.63 93.33-4.49L93.33-4.49L93.33-4.43Q94.11-4.22 94.46-3.73Q94.82-3.25 94.82-2.47L94.82-2.47Q94.82-1.32 93.95-0.66Q93.09 0 91.60 0L91.60 0L88.31 0ZM90.59-6.72L90.59-5.21L91.28-5.21Q91.77-5.21 92.04-5.41Q92.31-5.61 92.31-6.01L92.31-6.01Q92.31-6.72 91.23-6.72L91.23-6.72L90.59-6.72ZM91.35-3.54L90.59-3.54L90.59-1.76L91.39-1.76Q92.46-1.76 92.46-2.67L92.46-2.67Q92.46-3.09 92.18-3.31Q91.89-3.54 91.35-3.54L91.35-3.54Z" transform="translate(-0.9134121274409044, 8.486639260020555)"/></g></g></g></g></g><defs v-gra="od"/>
  </svg>
</svg>


