
<svg
  version="1.0"
  xmlns="http://www.w3.org/2000/svg"
  xmlns:xlink="http://www.w3.org/1999/xlink"
  width="2400"
  height="1800"
>
  
  <rect
    x="0"
    y="0"
    width="100%"
    height="100%"
    fill="#ffffff"
    fill-opacity="1"
  ></rect>
  <svg
    version="1.0"
    xmlns="http://www.w3.org/2000/svg"
    xmlns:xlink="http://www.w3.org/1999/xlink"
    x="0"
    y="0"
    width="2400"
    height="1800"
    viewBox="0 0 340.000000 250.000000"
    preserveAspectRatio="xMidYMid meet"
    color-interpolation-filters="sRGB"
  >
    <defs><linearGradient id="92" x1="0%" y1="0%" x2="100%" y2="0%"><stop offset="0%" stop-color="#fa71cd"/> <stop offset="100%" stop-color="#9b59b6"/></linearGradient><linearGradient id="93" x1="0%" y1="0%" x2="100%" y2="0%"><stop offset="0%" stop-color="#f9d423"/> <stop offset="100%" stop-color="#f83600"/></linearGradient><linearGradient id="94" x1="0%" y1="0%" x2="100%" y2="0%"><stop offset="0%" stop-color="#0064d2"/> <stop offset="100%" stop-color="#1cb0f6"/></linearGradient><linearGradient id="95" x1="0%" y1="0%" x2="100%" y2="0%"><stop offset="0%" stop-color="#f00978"/> <stop offset="100%" stop-color="#3f51b1"/></linearGradient><linearGradient id="96" x1="0%" y1="0%" x2="100%" y2="0%"><stop offset="0%" stop-color="#7873f5"/> <stop offset="100%" stop-color="#ec77ab"/></linearGradient><linearGradient id="97" x1="0%" y1="0%" x2="100%" y2="0%"><stop offset="0%" stop-color="#f9d423"/> <stop offset="100%" stop-color="#e14fad"/></linearGradient><linearGradient id="98" x1="0%" y1="0%" x2="100%" y2="0%"><stop offset="0%" stop-color="#009efd"/> <stop offset="100%" stop-color="#2af598"/></linearGradient><linearGradient id="99" x1="0%" y1="0%" x2="100%" y2="0%"><stop offset="0%" stop-color="#ffcc00"/> <stop offset="100%" stop-color="#00b140"/></linearGradient><linearGradient id="100" x1="0%" y1="0%" x2="100%" y2="0%"><stop offset="0%" stop-color="#d51007"/> <stop offset="100%" stop-color="#ff8177"/></linearGradient><linearGradient id="102" x1="0%" y1="0%" x2="100%" y2="0%"><stop offset="0%" stop-color="#a2b6df"/> <stop offset="100%" stop-color="#0c3483"/></linearGradient><linearGradient id="103" x1="0%" y1="0%" x2="100%" y2="0%"><stop offset="0%" stop-color="#7ac5d8"/> <stop offset="100%" stop-color="#eea2a2"/></linearGradient><linearGradient id="104" x1="0%" y1="0%" x2="100%" y2="0%"><stop offset="0%" stop-color="#00ecbc"/> <stop offset="100%" stop-color="#007adf"/></linearGradient><linearGradient id="105" x1="0%" y1="0%" x2="100%" y2="0%"><stop offset="0%" stop-color="#b88746"/> <stop offset="100%" stop-color="#fdf5a6"/></linearGradient></defs> <g fill="#ee1d22" class="bordersvg b-d1" transform="translate(61.701744079589844,64.57749855033762)"><path fill-opacity="0" stroke="#ee1d22" stroke-width="3" d="M 100.84500122070312 36.14125061035156 A 60.42250061035156 60.42250061035156 0 1 1 100.84500122070312 84.70375061035156"/> <g transform="translate(0,36.14125061035156)"><g><rect stroke-width="2" class="i-icon-bg" x="0" y="0" width="201.69000244140625" height="48.5625" fill-opacity="0"/> </g> <g transform="translate(10,3)"><g fill-rule="" class="tp-name" transform="translate(3.7900009155273438,0)"><g transform="scale(1)"><g><path d="M12.57 0.35L13.69-7.59 1.34-7.59 1.84-11.23 14.18-11.23 14.57-13.76 3.6-13.76 4.14-17.4 15.07-17.4 16.25-25.8 15.03-27.26 23.77-27.26 22.39-17.4 33.31-17.4 32.78-13.76 21.85-13.76 21.51-11.23 33.89-11.23 33.39-7.59 20.97-7.59 19.86 0.35 12.57 0.35ZM24-18.52L26.76-24.84 25.8-25.99 33.43-25.99 30.17-18.52 24-18.52ZM11.96-25.99L13.07-18.52 6.9-18.52 5.9-24.88 4.98-25.99 11.96-25.99ZM46.12-3.95L53.25-3.95 53.94-9.05 47.99-9.05 48.49-12.69 67.35-12.69 66.85-9.05 61.33-9.05 60.64-3.95 67.35-3.95 66.85-0.31 45.62-0.31 46.12-3.95ZM50.72-26.53L68.85-26.53 68.27-22.54 63.21-18.98 68.5-13.76 60.61-13.76 58.57-15.76 55.66-13.76 47.46-13.76 60.41-22.92 50.22-22.92 50.72-26.53ZM46.96-21.43L46.35-17.06 43.93 0.23 36.99 0.23 39.22-15.64 36.95-15.22 37.57-19.59 46.96-21.43ZM47.76-27.26L47.15-22.89 37.8-21.05 38.41-25.42 47.76-27.26ZM104.42-17.06L103.92-13.42 91.89-13.42 89.93 0.35 81.96 0.35 83.87-13.42 71.88-13.42 72.37-17.06 84.41-17.06 85.64-25.8 84.41-27.26 93.84-27.26 92.38-17.06 104.42-17.06ZM111.47-17.79L116.88-17.79 118.76-22.89 111.13-22.89 111.63-26.53 139.99-26.53 139.5-22.89 126.77-22.89 124.89-17.79 137.69-17.79 135.74-3.95 137.92-3.95 137.43-0.31 106.84-0.31 107.33-3.95 111.86-3.95 115.58-14.15 110.98-14.15 111.47-17.79ZM129.91-14.15L123.59-14.15 119.87-3.95 128.46-3.95 129.91-14.15ZM141.95-1.04L151.26-12.69 144.33-12.69 144.86-16.33 156.48-16.33 157.82-25.8 156.59-27.26 165.33-27.26 163.76-16.33 175.45-16.33 174.92-12.69 168.02-12.69 174.03-1.04 166.75-1.04 162.73-8.97 161.42 0.35 154.14 0.35 155.44-8.86 149.23-1.04 141.95-1.04ZM147.55-25.07L154.1-25.07 155.25-17.79 148.7-17.79 147.55-25.07ZM168.67-25.07L175.22-25.07 172-17.79 165.45-17.79 168.67-25.07Z" transform="translate(-1.340000033378601, 27.260000228881836)"/></g> </g></g> <g fill-rule="" class="tp-slogan" transform="translate(0,33.610002517700195)"><rect width="0"/> <rect x="184.69000244140625" width="0"/> <g transform="translate(0,0)"><g transform="scale(1)"><path d="M6.56 0L5.72-2.48L2.25-2.48L1.36 0L0.19 0L3.42-8.58L4.73-8.58L7.83 0L6.56 0ZM3.98-7.31L2.63-3.52L5.30-3.52L4.03-7.31L3.98-7.31ZM16.31-3.70L13.50-3.70L13.50 0L12.33 0L12.33-8.58L16.31-8.58Q19.17-8.58 19.17-6.28L19.17-6.28Q19.17-4.88 17.95-4.22L17.95-4.22Q18.98-3.94 18.98-2.58L18.98-2.58L19.08-1.03Q19.03-0.38 19.50-0.19L19.50-0.19L19.50 0L18.05 0Q17.91-0.61 17.86-2.16L17.86-2.16Q17.91-3.70 16.31-3.70L16.31-3.70ZM16.41-7.64L13.50-7.64L13.50-4.69L16.22-4.69Q17.95-4.69 17.95-6.19L17.95-6.19Q17.95-7.64 16.41-7.64L16.41-7.64ZM26.48 0L25.64-2.48L22.17-2.48L21.28 0L20.11 0L23.34-8.58L24.66-8.58L27.75 0L26.48 0ZM23.91-7.31L22.55-3.52L25.22-3.52L23.95-7.31L23.91-7.31ZM32.30 0L28.83 0L28.83-8.58L32.34-8.58Q35.81-8.39 35.95-4.41L35.95-4.41Q35.77-0.09 32.30 0L32.30 0ZM32.16-7.64L30-7.64L30-0.98L32.25-0.98Q34.69-1.13 34.78-4.31L34.78-4.31Q34.73-7.55 32.16-7.64L32.16-7.64ZM37.59-8.58L38.77-8.58L38.77 0L37.59 0L37.59-8.58ZM46.41-3.19L46.41-8.58L47.58-8.58L47.58-3.05Q47.44 0.05 44.06 0.14L44.06 0.14Q40.92 0.05 40.78-2.86L40.78-2.86L40.78-8.58L41.95-8.58L41.95-3.19Q42-0.84 44.11-0.80L44.11-0.80Q46.41-0.84 46.41-3.19L46.41-3.19ZM55.64-6.09L55.64-6.09L54.56-6.09Q54.47-7.73 52.41-7.83L52.41-7.83Q50.48-7.78 50.48-6.33L50.48-6.33Q50.48-5.39 51.52-5.25L51.52-5.25L53.95-4.69Q55.88-4.22 55.88-2.34L55.88-2.34Q55.83 0.05 52.50 0.14L52.50 0.14Q50.67 0.14 49.92-0.61L49.92-0.61Q48.98-1.31 49.03-2.77L49.03-2.77L50.16-2.77Q50.20-0.80 52.50-0.75L52.50-0.75Q54.75-0.80 54.80-2.20L54.80-2.20Q54.98-3.38 52.92-3.75L52.92-3.75L51.14-4.13Q49.31-4.64 49.31-6.19L49.31-6.19Q49.45-8.72 52.31-8.81L52.31-8.81Q55.55-8.81 55.64-6.09ZM67.45-4.27L67.45-4.27Q67.27-7.64 64.45-7.83L64.45-7.83Q61.59-7.69 61.45-4.27L61.45-4.27Q61.59-0.94 64.45-0.80L64.45-0.80Q67.27-0.98 67.45-4.27ZM68.63-4.27L68.63-4.27Q68.34 0 64.45 0.14L64.45 0.14Q60.52 0 60.23-4.27L60.23-4.27Q60.47-8.72 64.45-8.81L64.45-8.81Q68.34-8.67 68.63-4.27ZM75.52-3.89L71.30-3.89L71.30 0L70.13 0L70.13-8.58L76.08-8.58L76.08-7.59L71.30-7.59L71.30-4.92L75.52-4.92L75.52-3.89ZM86.11-3.89L81.89-3.89L81.89 0L80.72 0L80.72-8.58L86.67-8.58L86.67-7.59L81.89-7.59L81.89-4.92L86.11-4.92L86.11-3.89ZM88.03-8.58L89.20-8.58L89.20 0L88.03 0L88.03-8.58ZM96.70-3.89L92.48-3.89L92.48 0L91.31 0L91.31-8.58L97.27-8.58L97.27-7.59L92.48-7.59L92.48-4.92L96.70-4.92L96.70-3.89ZM100.64-7.59L97.73-7.59L97.73-8.58L104.67-8.58L104.67-7.59L101.77-7.59L101.77 0L100.64 0L100.64-7.59ZM107.02-1.03L112.17-1.03L112.17 0L105.84 0L105.84-8.58L112.08-8.58L112.08-7.59L107.02-7.59L107.02-4.92L111.70-4.92L111.70-3.89L107.02-3.89L107.02-1.03ZM114.98-1.03L120.14-1.03L120.14 0L113.81 0L113.81-8.58L120.05-8.58L120.05-7.59L114.98-7.59L114.98-4.92L119.67-4.92L119.67-3.89L114.98-3.89L114.98-1.03ZM123.05-8.58L127.36-1.64L127.36-8.58L128.48-8.58L128.48 0L127.17 0L122.81-6.94L122.77-6.94L122.77 0L121.64 0L121.64-8.58L123.05-8.58ZM141.84-8.58L141.84 0L140.72 0L140.72-5.06Q140.72-5.77 140.72-7.22L140.72-7.22L138.28 0L137.11 0L134.72-7.22L134.67-7.22Q134.67-6.70 134.72-5.67L134.72-5.67Q134.72-5.16 134.72-5.06L134.72-5.06L134.72 0L133.55 0L133.55-8.58L135.23-8.58L137.72-1.31L140.16-8.58L141.84-8.58ZM144.84-1.03L150-1.03L150 0L143.67 0L143.67-8.58L149.91-8.58L149.91-7.59L144.84-7.59L144.84-4.92L149.53-4.92L149.53-3.89L144.84-3.89L144.84-1.03ZM153.70-7.59L150.80-7.59L150.80-8.58L157.73-8.58L157.73-7.59L154.83-7.59L154.83 0L153.70 0L153.70-7.59ZM160.08-1.03L165.23-1.03L165.23 0L158.91 0L158.91-8.58L165.14-8.58L165.14-7.59L160.08-7.59L160.08-4.92L164.77-4.92L164.77-3.89L160.08-3.89L160.08-1.03ZM170.86-3.70L168.05-3.70L168.05 0L166.88 0L166.88-8.58L170.86-8.58Q173.72-8.58 173.72-6.28L173.72-6.28Q173.72-4.88 172.50-4.22L172.50-4.22Q173.53-3.94 173.53-2.58L173.53-2.58L173.63-1.03Q173.58-0.38 174.05-0.19L174.05-0.19L174.05 0L172.59 0Q172.45-0.61 172.41-2.16L172.41-2.16Q172.45-3.70 170.86-3.70L170.86-3.70ZM170.95-7.64L168.05-7.64L168.05-4.69L170.77-4.69Q172.50-4.69 172.50-6.19L172.50-6.19Q172.50-7.64 170.95-7.64L170.95-7.64ZM181.64-6.09L181.64-6.09L180.56-6.09Q180.47-7.73 178.41-7.83L178.41-7.83Q176.48-7.78 176.48-6.33L176.48-6.33Q176.48-5.39 177.52-5.25L177.52-5.25L179.95-4.69Q181.88-4.22 181.88-2.34L181.88-2.34Q181.83 0.05 178.50 0.14L178.50 0.14Q176.67 0.14 175.92-0.61L175.92-0.61Q174.98-1.31 175.03-2.77L175.03-2.77L176.16-2.77Q176.20-0.80 178.50-0.75L178.50-0.75Q180.75-0.80 180.80-2.20L180.80-2.20Q180.98-3.38 178.92-3.75L178.92-3.75L177.14-4.13Q175.31-4.64 175.31-6.19L175.31-6.19Q175.45-8.72 178.31-8.81L178.31-8.81Q181.55-8.81 181.64-6.09Z" transform="translate(-0.1875, 8.8125)"/></g></g></g></g></g></g><defs v-gra="od"/>
  </svg>
</svg>


