
<svg
  version="1.0"
  xmlns="http://www.w3.org/2000/svg"
  xmlns:xlink="http://www.w3.org/1999/xlink"
  width="2400"
  height="1800"
>
  
  <rect
    x="0"
    y="0"
    width="100%"
    height="100%"
    fill="#FFFFFF"
    fill-opacity="1"
  ></rect>
  <svg
    version="1.0"
    xmlns="http://www.w3.org/2000/svg"
    xmlns:xlink="http://www.w3.org/1999/xlink"
    x="0"
    y="0"
    width="2400"
    height="1800"
    viewBox="0 0 340.000000 250.000000"
    preserveAspectRatio="xMidYMid meet"
    color-interpolation-filters="sRGB"
  >
    <defs><linearGradient id="92" x1="0%" y1="0%" x2="100%" y2="0%"><stop offset="0%" stop-color="#fa71cd"/> <stop offset="100%" stop-color="#9b59b6"/></linearGradient><linearGradient id="93" x1="0%" y1="0%" x2="100%" y2="0%"><stop offset="0%" stop-color="#f9d423"/> <stop offset="100%" stop-color="#f83600"/></linearGradient><linearGradient id="94" x1="0%" y1="0%" x2="100%" y2="0%"><stop offset="0%" stop-color="#0064d2"/> <stop offset="100%" stop-color="#1cb0f6"/></linearGradient><linearGradient id="95" x1="0%" y1="0%" x2="100%" y2="0%"><stop offset="0%" stop-color="#f00978"/> <stop offset="100%" stop-color="#3f51b1"/></linearGradient><linearGradient id="96" x1="0%" y1="0%" x2="100%" y2="0%"><stop offset="0%" stop-color="#7873f5"/> <stop offset="100%" stop-color="#ec77ab"/></linearGradient><linearGradient id="97" x1="0%" y1="0%" x2="100%" y2="0%"><stop offset="0%" stop-color="#f9d423"/> <stop offset="100%" stop-color="#e14fad"/></linearGradient><linearGradient id="98" x1="0%" y1="0%" x2="100%" y2="0%"><stop offset="0%" stop-color="#009efd"/> <stop offset="100%" stop-color="#2af598"/></linearGradient><linearGradient id="99" x1="0%" y1="0%" x2="100%" y2="0%"><stop offset="0%" stop-color="#ffcc00"/> <stop offset="100%" stop-color="#00b140"/></linearGradient><linearGradient id="100" x1="0%" y1="0%" x2="100%" y2="0%"><stop offset="0%" stop-color="#d51007"/> <stop offset="100%" stop-color="#ff8177"/></linearGradient><linearGradient id="102" x1="0%" y1="0%" x2="100%" y2="0%"><stop offset="0%" stop-color="#a2b6df"/> <stop offset="100%" stop-color="#0c3483"/></linearGradient><linearGradient id="103" x1="0%" y1="0%" x2="100%" y2="0%"><stop offset="0%" stop-color="#7ac5d8"/> <stop offset="100%" stop-color="#eea2a2"/></linearGradient><linearGradient id="104" x1="0%" y1="0%" x2="100%" y2="0%"><stop offset="0%" stop-color="#00ecbc"/> <stop offset="100%" stop-color="#007adf"/></linearGradient><linearGradient id="105" x1="0%" y1="0%" x2="100%" y2="0%"><stop offset="0%" stop-color="#b88746"/> <stop offset="100%" stop-color="#fdf5a6"/></linearGradient></defs> <g fill="#333333" class="icon-text-wrapper icon-svg-group iconsvg" transform="translate(36.660003662109375,100.96027183532715)"><g class="iconsvg-imagesvg" transform="translate(0,1.7858562469482422)"><g><rect fill="#333333" fill-opacity="0" stroke-width="2" x="0" y="0" width="90.00000000000003" height="44.50774434751648" class="image-rect"/> <svg x="0" y="0" width="90.00000000000003" height="44.50774434751648" filtersec="colorsb6309753070" class="image-svg-svg primary" style="overflow: visible;"><svg xmlns="http://www.w3.org/2000/svg" viewBox="0 0 163.65000915527344 80.93000030517578"><path d="M52.85 0h1.7c5.94 1.43 9.64 5.93 13.79 9.89 5.31 5.07 9.88 10.93 16 15.2 1.58 3.08 4.29 5.11 6.83 7.3.93 1 1.82 2.14 2.81 3.14 8 8 16.13 16 24 24.09 6.32 6.5 5 15.75-2.53 19.74l-2.94 1.57h-6c-4.22-2.13-7.37-5.55-10.71-8.78-5.44-5.3-10.39-11.15-16.39-15.9-2.18-2.57-4.11-5.41-7.38-6.78.15-1.9-1.51-2.61-2.54-3.65-8-8-16.11-15.91-23.94-24.07-7-7.29-4-17.94 5.61-20.81.65-.19 1.44-.05 1.69-.94z" fill="#1e9fea"/><path d="M91.13 32.39c-2.54-2.19-5.25-4.22-6.83-7.3 2.32-4.86 4.59-9.74 7-14.56C96.54-.11 105.19-1.49 113.67 7q21.7 21.6 43.4 43.25a31.72 31.72 0 0 1 6.58 8.58v6.77c-1.48 1.85-2.72 4-4.48 5.5-5.33 4.62-11.76 4-17.42-1.69-15.22-15.25-30.37-30.56-45.84-46.14zM72 49.47c3.27 1.37 5.2 4.21 7.38 6.78-2.28 4.71-4.58 9.42-6.84 14.13C67.2 81.56 58.56 83 49.75 74.25 35.79 60.33 21.89 46.36 7.9 32.48 4.77 29.38 1.84 26.2 0 22.15V17C6.66 4.91 13.88 3.9 23.71 13.72q19.84 19.83 39.67 39.67c1.44 1.45 2.73 3 4.42 4.94z" fill="#1155eb"/></svg></svg> </g></g> <g transform="translate(97,0)"><g fill-rule="" class="tp-name iconsvg-namesvg" transform="translate(0,0)"><g transform="scale(1)"><g><path d="M7.16-17.05L16.82-17.05 15.98-16.17 40.38-16.17 38.48-2.63Q38.3-1.29 37.28-0.44 36.26 0.42 34.92 0.42L34.92 0.42 25.78 0.42 29.89-3.93 30.54-8.45 22.73 0.42 14.37 0.42 25.08-11.78 22.45-11.78 11.73 0.42 3.37 0.42 14.09-11.78 11.96-11.78 9.56-9.15 1.66-9.15 7.99-16.08 7.16-17.05ZM6.42-17.92L8.13-30.21 6.61-31.97 40.84-31.97 38.9-17.92 6.42-17.92ZM16.68-28.46L16.4-26.7 31.32-26.7 31.6-28.46 16.68-28.46ZM15.66-21.43L30.58-21.43 30.81-23.19 15.89-23.19 15.66-21.43ZM57.84 0.42L60.98-21.85 46.93-21.85 47.58-26.24 61.58-26.24 62.27-31.09 60.79-32.85 71.33-32.85 70.4-26.24 84.45-26.24 83.8-21.85 69.76-21.85 66.61 0.42 57.84 0.42ZM51.83-0.37L43.05-0.37 50.26-20.56 59.04-20.56 51.83-0.37ZM81.67-0.37L72.9-0.37 71.33-20.56 80.1-20.56 81.67-0.37ZM82-27.58L73.22-27.58 72.94-31.97 81.72-31.97 82-27.58Z" transform="translate(-1.6600000858306885, 32.849998474121094)"/></g> <g fill="#333333" transform="translate(85.78999328613281,0)"><g transform="scale(1)"><path d="M1.99-9.79L38.67-9.79 37.28-0.14 0.6-0.14 1.99-9.79ZM5.17-19.49L38.34-19.49 37.14-10.76 3.97-10.76 5.17-19.49ZM11.27-25.96L11.41-27.02 4.39-27.02 4.99-31.14 11.92-31.14 10.49-32.85 20.14-32.85 19.86-31.14 26.84-31.14 25.41-32.85 35.06-32.85 34.79-31.14 41.85-31.14 41.25-27.02 34.23-27.02 34.09-25.96 26.19-25.96 26.33-27.02 19.31-27.02 19.17-25.96 11.27-25.96ZM32.06-20.28L32.2-21.48 11.87-21.48 11.73-20.28 3.46-20.28 4.11-25.18 40.98-25.18 40.33-20.28 32.06-20.28ZM8.82-3.79L30.07-3.79 30.44-6.14 9.19-6.14 8.82-3.79ZM11.78-14.27L30.21-14.27 30.44-15.98 12.01-15.98 11.78-14.27ZM76.73 0.37L70.17 0.37 73.36-3.1 73.73-5.73 64.67-5.73 63.8 0.37 56.77 0.37 60.24-24.16 68.18-24.16 69.2-31.41 67.72-32.8 76.82-32.8 75.58-24.16 83.34-24.16 80.33-2.73Q80.15-1.39 79.09-0.51 78.02 0.37 76.73 0.37L76.73 0.37ZM43.65-15.43L46.98-15.43 47.35-18.15 45.18-18.15 45.78-22.54 57.98-22.54 57.38-18.15 54.83-18.15 54.46-15.43 58.02-15.43 57.38-10.81 53.82-10.81 53.03-5.27 56.45-6.05 55.85-1.71 44.76 0.32 46.33-10.81 43.01-10.81 43.65-15.43ZM47.21-32.8L55.71-32.8 54.23-29.57 59.41-29.57 58.76-25.04 52.2-25.04 51.51-23.42 44.76-23.42 48.37-31.41 47.21-32.8ZM66.24-31.64L67.45-24.9 61.72-24.9 60.56-31.64 66.24-31.64ZM76.45-24.9L78.99-30.77 78.26-31.64 84.49-31.64 81.72-24.9 76.45-24.9ZM65.64-12.7L65.27-10.12 74.33-10.12 74.7-12.7 65.64-12.7ZM66.66-19.68L66.29-17.09 75.35-17.09 75.71-19.68 66.66-19.68Z" transform="translate(-0.6000000238418579, 32.849998474121094)"/></g></g></g></g> <g fill-rule="" class="tp-slogan iconsvg-slogansvg" fill="#333333" transform="translate(3.9949951171875,39.27000045776367)"> <g transform="scale(1, 1)"><g transform="scale(1)"><path d="M6.01-1.89L6.01 0L0.93 0L0.93-8.57L6.01-8.57L6.01-6.71L3.24-6.71L3.24-5.36L5.81-5.36L5.81-3.50L3.24-3.50L3.24-1.89L6.01-1.89ZM17.30 0L14.77 0L14.35-1.61L11.56-1.61L11.13 0L8.59 0L11.38-8.60L14.47-8.60L17.30 0ZM12.04-3.50L13.87-3.50L13.50-4.91Q13.37-5.38 13.18-6.12Q13.00-6.87 12.94-7.19L12.94-7.19Q12.89-6.89 12.73-6.21Q12.58-5.52 12.04-3.50L12.04-3.50ZM25.83-2.60L25.83-2.60Q25.83-1.80 25.42-1.19Q25.02-0.57 24.26-0.23Q23.49 0.12 22.47 0.12L22.47 0.12Q21.61 0.12 21.03-0.00Q20.45-0.12 19.83-0.42L19.83-0.42L19.83-2.48Q20.49-2.14 21.20-1.95Q21.92-1.76 22.52-1.76L22.52-1.76Q23.03-1.76 23.27-1.94Q23.51-2.12 23.51-2.40L23.51-2.40Q23.51-2.58 23.42-2.71Q23.32-2.84 23.10-2.98Q22.89-3.11 21.96-3.53L21.96-3.53Q21.13-3.91 20.71-4.27Q20.29-4.62 20.09-5.09Q19.88-5.55 19.88-6.18L19.88-6.18Q19.88-7.37 20.75-8.03Q21.61-8.69 23.11-8.69L23.11-8.69Q24.44-8.69 25.83-8.07L25.83-8.07L25.12-6.29Q23.92-6.84 23.04-6.84L23.04-6.84Q22.59-6.84 22.39-6.68Q22.18-6.52 22.18-6.29L22.18-6.29Q22.18-6.04 22.44-5.84Q22.70-5.64 23.86-5.11L23.86-5.11Q24.96-4.61 25.40-4.04Q25.83-3.47 25.83-2.60ZM30.74-8.57L32.21-5.39L33.69-8.57L36.19-8.57L33.38-3.35L33.38 0L31.04 0L31.04-3.28L28.22-8.57L30.74-8.57ZM80.88 0L78.67 0L76.92-6.17L76.87-6.17Q76.99-4.59 76.99-3.72L76.99-3.72L76.99 0L74.94 0L74.94-8.57L78.02-8.57L79.81-2.48L79.86-2.48L81.61-8.57L84.70-8.57L84.70 0L82.57 0L82.57-3.76Q82.57-4.05 82.58-4.41Q82.59-4.76 82.66-6.16L82.66-6.16L82.60-6.16L80.88 0ZM96.33 0L93.80 0L93.38-1.61L90.59-1.61L90.16 0L87.62 0L90.41-8.60L93.50-8.60L96.33 0ZM91.07-3.50L92.89-3.50L92.53-4.91Q92.40-5.38 92.21-6.12Q92.03-6.87 91.97-7.19L91.97-7.19Q91.92-6.89 91.76-6.21Q91.61-5.52 91.07-3.50L91.07-3.50ZM102.15-3.12L101.57-3.12L101.57 0L99.25 0L99.25-8.57L102.06-8.57Q105.55-8.57 105.55-6.04L105.55-6.04Q105.55-4.55 104.10-3.73L104.10-3.73L106.60 0L103.97 0L102.15-3.12ZM101.57-6.81L101.57-4.86L102.00-4.86Q103.21-4.86 103.21-5.93L103.21-5.93Q103.21-6.81 102.03-6.81L102.03-6.81L101.57-6.81ZM114.04-4.73L116.69 0L114.08 0L112.39-3.28L111.70-2.87L111.70 0L109.38 0L109.38-8.57L111.70-8.57L111.70-4.85Q111.88-5.19 112.41-5.94L112.41-5.94L114.21-8.57L116.74-8.57L114.04-4.73ZM124.71-1.89L124.71 0L119.62 0L119.62-8.57L124.71-8.57L124.71-6.71L121.93-6.71L121.93-5.36L124.50-5.36L124.50-3.50L121.93-3.50L121.93-1.89L124.71-1.89ZM131.98-6.67L131.98 0L129.67 0L129.67-6.67L127.58-6.67L127.58-8.57L134.07-8.57L134.07-6.67L131.98-6.67ZM139.62 0L137.29 0L137.29-8.57L139.62-8.57L139.62 0ZM151.63-8.57L151.63 0L148.59 0L145.46-6.04L145.41-6.04Q145.52-4.61 145.52-3.86L145.52-3.86L145.52 0L143.47 0L143.47-8.57L146.50-8.57L149.61-2.61L149.65-2.61Q149.57-3.91 149.57-4.69L149.57-4.69L149.57-8.57L151.63-8.57ZM158.92-3.23L158.92-5.02L162.62-5.02L162.62-0.40Q161.11 0.12 159.31 0.12L159.31 0.12Q157.33 0.12 156.25-1.03Q155.16-2.18 155.16-4.31L155.16-4.31Q155.16-6.38 156.35-7.54Q157.53-8.69 159.66-8.69L159.66-8.69Q160.47-8.69 161.19-8.54Q161.91-8.38 162.44-8.15L162.44-8.15L161.71-6.33Q160.78-6.79 159.68-6.79L159.68-6.79Q158.66-6.79 158.11-6.13Q157.55-5.47 157.55-4.25L157.55-4.25Q157.55-3.05 158.06-2.42Q158.56-1.79 159.50-1.79L159.50-1.79Q160.02-1.79 160.45-1.89L160.45-1.89L160.45-3.23L158.92-3.23Z" transform="translate(-0.92578125, 8.689453125)"/></g></g></g></g></g><defs v-gra="od"/>
  </svg>
</svg>


