<svg xmlns="http://www.w3.org/2000/svg" xmlns:xlink="http://www.w3.org/1999/xlink" version="1.0" x="0" y="0" width="2400" height="827.2453407193867" viewBox="46.07160400390625 83.31772827148437 241.8567919921875 83.36454345703125" preserveAspectRatio="xMidYMid meet" color-interpolation-filters="sRGB"><g><defs><linearGradient id="92" x1="0%" y1="0%" x2="100%" y2="0%"><stop offset="0%" stop-color="#fa71cd"></stop> <stop offset="100%" stop-color="#9b59b6"></stop></linearGradient><linearGradient id="93" x1="0%" y1="0%" x2="100%" y2="0%"><stop offset="0%" stop-color="#f9d423"></stop> <stop offset="100%" stop-color="#f83600"></stop></linearGradient><linearGradient id="94" x1="0%" y1="0%" x2="100%" y2="0%"><stop offset="0%" stop-color="#0064d2"></stop> <stop offset="100%" stop-color="#1cb0f6"></stop></linearGradient><linearGradient id="95" x1="0%" y1="0%" x2="100%" y2="0%"><stop offset="0%" stop-color="#f00978"></stop> <stop offset="100%" stop-color="#3f51b1"></stop></linearGradient><linearGradient id="96" x1="0%" y1="0%" x2="100%" y2="0%"><stop offset="0%" stop-color="#7873f5"></stop> <stop offset="100%" stop-color="#ec77ab"></stop></linearGradient><linearGradient id="97" x1="0%" y1="0%" x2="100%" y2="0%"><stop offset="0%" stop-color="#f9d423"></stop> <stop offset="100%" stop-color="#e14fad"></stop></linearGradient><linearGradient id="98" x1="0%" y1="0%" x2="100%" y2="0%"><stop offset="0%" stop-color="#009efd"></stop> <stop offset="100%" stop-color="#2af598"></stop></linearGradient><linearGradient id="99" x1="0%" y1="0%" x2="100%" y2="0%"><stop offset="0%" stop-color="#ffcc00"></stop> <stop offset="100%" stop-color="#00b140"></stop></linearGradient><linearGradient id="100" x1="0%" y1="0%" x2="100%" y2="0%"><stop offset="0%" stop-color="#d51007"></stop> <stop offset="100%" stop-color="#ff8177"></stop></linearGradient><linearGradient id="102" x1="0%" y1="0%" x2="100%" y2="0%"><stop offset="0%" stop-color="#a2b6df"></stop> <stop offset="100%" stop-color="#0c3483"></stop></linearGradient><linearGradient id="103" x1="0%" y1="0%" x2="100%" y2="0%"><stop offset="0%" stop-color="#7ac5d8"></stop> <stop offset="100%" stop-color="#eea2a2"></stop></linearGradient><linearGradient id="104" x1="0%" y1="0%" x2="100%" y2="0%"><stop offset="0%" stop-color="#00ecbc"></stop> <stop offset="100%" stop-color="#007adf"></stop></linearGradient><linearGradient id="105" x1="0%" y1="0%" x2="100%" y2="0%"><stop offset="0%" stop-color="#b88746"></stop> <stop offset="100%" stop-color="#fdf5a6"></stop></linearGradient></defs><g fill="#333333" class="mojosvg mojo-g" transform="translate(54.4427490234375,91.68887329101562)"><g class="iconsvg-imagesvg" transform="translate(0,0)" mask="url(#c8324958-c1d6-4d0f-9ced-9cadbc705543)"><g><rect fill="#333333" fill-opacity="0" stroke-width="2" x="0" y="0" width="60" height="66.62225183211193" class="image-rect"></rect> <svg x="0" y="0" width="60" height="66.62225183211193" filtersec="colorsb2706182027" class="image-svg-svg primary" style="overflow: visible;"><svg xmlns="http://www.w3.org/2000/svg" viewBox="0 0 90.05999755859375 100"><path fill="#07E0F2" d="M90.06 16.05L66.75 39.37 74.01 0l16.05 16.05z"></path><path fill="#07E0F2" d="M73.76 7.04v22.79H11.02l4.15-22.79h58.59zM79.11 76.68L55.79 100l7.26-39.37 16.06 16.05z"></path><path fill="#07E0F2" d="M62.8 67.67v22.8H0l4.14-22.8H62.8z"></path><path fill="#07E0F2" d="M49.18 38.59l-3.66 20.06H5.79l.1-.58 3.54-19.48h39.75z"></path></svg></svg> </g><rect v-gra="id" width="72" height="78.62225341796875" transform="translate(-6, -6)" style="pointer-events:none;" fill="url(#C8DawzL1yhTJcqfKlk6IT)"></rect></g><g transform="translate(66,8.895540237426758)"><g class="tp-name" transform="translate(0,0)"><g transform="translate(0, 0)"><g fill="#333333" transform="translate(0,3)"><g transform="scale(1)"><path d="M7.11-16.92L16.69-16.92L15.86-16.05L40.07-16.05L38.19-2.61Q38.01-1.28 37.00-0.44Q35.99 0.41 34.66 0.41L34.66 0.41L25.58 0.41L29.66-3.90L30.30-8.39L22.56 0.41L14.26 0.41L24.89-11.69L22.28-11.69L11.65 0.41L3.35 0.41L13.98-11.69L11.87-11.69L9.49-9.08L1.65-9.08L7.93-15.95L7.11-16.92ZM6.37-17.79L8.07-29.98L6.56-31.73L40.53-31.73L38.60-17.79L6.37-17.79ZM16.55-28.24L16.28-26.50L31.08-26.50L31.36-28.24L16.55-28.24ZM15.54-21.27L30.35-21.27L30.58-23.02L15.77-23.02L15.54-21.27Z" transform="translate(-1.650485436893204, 32.59708737864078)"></path></g></g></g><g transform="translate(39.87810140237325, 0)"><g fill="#333333" transform="translate(0,3)"><g transform="scale(1)"><path d="M15.22 0.41L18.34-21.69L4.40-21.69L5.04-26.04L18.93-26.04L19.62-30.85L18.16-32.60L28.61-32.60L27.69-26.04L41.63-26.04L40.99-21.69L27.05-21.69L23.93 0.41L15.22 0.41ZM9.26-0.37L0.55-0.37L7.70-20.40L16.41-20.40L9.26-0.37ZM38.88-0.37L30.17-0.37L28.61-20.40L37.32-20.40L38.88-0.37ZM39.20-27.37L30.49-27.37L30.21-31.73L38.92-31.73L39.20-27.37Z" transform="translate(-0.5501618122977346, 32.59708737864078)"></path></g></g></g><g transform="translate(81.95685005393743, 0)"><g fill="#333333" transform="translate(0,3)"><g transform="scale(1)"><path d="M27.23-27.42L32.41-27.42L29.39-6.05L24.21-6.05L27.23-27.42ZM33.28-31.86L41.26-31.86L37.09-2.06Q36.91-0.78 35.90-0.21Q34.89 0.37 33.61 0.37L33.61 0.37L26.68 0.37L30.63-3.58L34.39-30.26L33.28-31.86ZM22.79 0L0.87 0L3.81-21.04L23.11-21.04L21.64-10.59Q21.46-9.31 20.97-8.85Q20.49-8.39 19.16-8.39L19.16-8.39L10.91-8.39L14.72-11.51L15.50-17.15L10.32-17.15L8.62-5.04L21.87-5.04L23.66-6.33L22.79 0ZM2.48-21.55L9.12-31.22L8.16-32.51L21.50-32.51L24.94-21.55L17.51-21.55L14.95-28.06L14.63-28.06L10.27-21.55L2.48-21.55Z" transform="translate(-0.8710895361380798, 32.59708737864078)"></path></g></g></g><g transform="translate(123.34789644012945, 0)"><g fill="#333333" transform="translate(0,3)"><g transform="scale(1)"><path d="M21.18 0.41L25.49-29.98L41.95-32.60L41.31-28.24L31.54-26.68L30.90-22.14L41.35-22.14L40.71-17.79L38.97-17.79L36.40 0.41L29.85 0.41L32.41-17.79L30.26-17.79L27.69 0.41L21.18 0.41ZM3.07-16.46L8.76-16.46L8.94-17.79L2.38-17.79L3.03-22.14L6.10-22.14L5.55-24.76L11.65-24.76L12.20-22.14L13.89-22.14L15.18-24.76L21.27-24.76L19.99-22.14L23.06-22.14L22.42-17.79L15.91-17.79L15.73-16.46L21.36-16.46L20.77-12.10L15.13-12.10L13.80-2.61Q13.57-1.28 12.54-0.44Q11.51 0.41 10.18 0.41L10.18 0.41L4.17 0.41L6.74-2.20L8.16-12.10L2.48-12.10L3.07-16.46ZM5.00-29.98L10.68-29.98L10.87-31.27L9.72-32.60L18.02-32.60L17.65-29.98L23.29-29.98L22.65-25.63L4.36-25.63L5.00-29.98ZM15.86-2.11L15.77-10.82L20.13-10.82L20.22-2.11L15.86-2.11ZM7.11-10.82L4.54-2.11L0.18-2.11L2.75-10.82L7.11-10.82Z" transform="translate(-0.18338727076591155, 32.59708737864078)"></path></g></g></g></g><g fill-rule="" class="tp-slogan" fill="#333333" transform="translate(4.337493896484375,43.0070915222168)"> <g transform="scale(1, 1)"><g transform="scale(1)"><path d="M2.52-8.57L3.98-5.39L5.46-8.57L7.97-8.57L5.15-3.35L5.15 0L2.82 0L2.82-3.28L0-8.57L2.52-8.57ZM12.22 0L9.89 0L9.89-8.57L12.22-8.57L12.22 0ZM20.67-2.60L20.67-2.60Q20.67-1.80 20.27-1.19Q19.87-0.57 19.10-0.23Q18.34 0.12 17.32 0.12L17.32 0.12Q16.46 0.12 15.88-0.00Q15.30-0.12 14.67-0.42L14.67-0.42L14.67-2.48Q15.34-2.14 16.05-1.95Q16.77-1.76 17.36-1.76L17.36-1.76Q17.88-1.76 18.12-1.94Q18.36-2.12 18.36-2.40L18.36-2.40Q18.36-2.58 18.26-2.71Q18.17-2.84 17.95-2.98Q17.74-3.11 16.81-3.53L16.81-3.53Q15.97-3.91 15.56-4.27Q15.14-4.62 14.93-5.09Q14.73-5.55 14.73-6.18L14.73-6.18Q14.73-7.37 15.59-8.03Q16.46-8.69 17.96-8.69L17.96-8.69Q19.29-8.69 20.67-8.07L20.67-8.07L19.96-6.29Q18.76-6.84 17.89-6.84L17.89-6.84Q17.44-6.84 17.23-6.68Q17.03-6.52 17.03-6.29L17.03-6.29Q17.03-6.04 17.29-5.84Q17.55-5.64 18.71-5.11L18.71-5.11Q19.81-4.61 20.24-4.04Q20.67-3.47 20.67-2.60ZM30.34-8.57L30.34 0L28.01 0L28.01-3.49L25.32-3.49L25.32 0L23.00 0L23.00-8.57L25.32-8.57L25.32-5.39L28.01-5.39L28.01-8.57L30.34-8.57ZM38.16-8.57L40.47-8.57L40.47-3.41Q40.47-1.73 39.52-0.81Q38.57 0.12 36.78 0.12L36.78 0.12Q35.03 0.12 34.08-0.78Q33.14-1.68 33.14-3.36L33.14-3.36L33.14-8.57L35.47-8.57L35.47-3.54Q35.47-2.63 35.81-2.22Q36.15-1.81 36.81-1.81L36.81-1.81Q37.52-1.81 37.84-2.22Q38.16-2.63 38.16-3.55L38.16-3.55L38.16-8.57ZM51.29-4.29L51.29-4.29Q51.29-2.13 50.23-1.01Q49.17 0.12 47.12 0.12L47.12 0.12Q45.11 0.12 44.03-1.01Q42.96-2.14 42.96-4.31L42.96-4.31Q42.96-6.45 44.03-7.57Q45.10-8.70 47.13-8.70L47.13-8.70Q49.18-8.70 50.23-7.58Q51.29-6.46 51.29-4.29ZM45.39-4.29L45.39-4.29Q45.39-1.81 47.12-1.81L47.12-1.81Q48.00-1.81 48.43-2.41Q48.85-3.02 48.85-4.29L48.85-4.29Q48.85-5.58 48.42-6.19Q47.99-6.80 47.13-6.80L47.13-6.80Q45.39-6.80 45.39-4.29ZM59.44-2.60L59.44-2.60Q59.44-1.80 59.03-1.19Q58.63-0.57 57.87-0.23Q57.11 0.12 56.08 0.12L56.08 0.12Q55.22 0.12 54.64-0.00Q54.06-0.12 53.44-0.42L53.44-0.42L53.44-2.48Q54.10-2.14 54.81-1.95Q55.53-1.76 56.13-1.76L56.13-1.76Q56.64-1.76 56.88-1.94Q57.12-2.12 57.12-2.40L57.12-2.40Q57.12-2.58 57.03-2.71Q56.93-2.84 56.72-2.98Q56.50-3.11 55.58-3.53L55.58-3.53Q54.74-3.91 54.32-4.27Q53.90-4.62 53.70-5.09Q53.50-5.55 53.50-6.18L53.50-6.18Q53.50-7.37 54.36-8.03Q55.22-8.69 56.72-8.69L56.72-8.69Q58.05-8.69 59.44-8.07L59.44-8.07L58.73-6.29Q57.53-6.84 56.65-6.84L56.65-6.84Q56.20-6.84 56.00-6.68Q55.79-6.52 55.79-6.29L55.79-6.29Q55.79-6.04 56.05-5.84Q56.31-5.64 57.47-5.11L57.47-5.11Q58.58-4.61 59.01-4.04Q59.44-3.47 59.44-2.60ZM88.79 0L86.46 0L86.46-8.57L88.79-8.57L88.79 0ZM99.80-8.57L99.80 0L96.76 0L93.63-6.04L93.58-6.04Q93.69-4.61 93.69-3.86L93.69-3.86L93.69 0L91.64 0L91.64-8.57L94.67-8.57L97.78-2.61L97.82-2.61Q97.74-3.91 97.74-4.69L97.74-4.69L97.74-8.57L99.80-8.57ZM110.81-8.57L110.81 0L107.77 0L104.64-6.04L104.59-6.04Q104.70-4.61 104.70-3.86L104.70-3.86L104.70 0L102.65 0L102.65-8.57L105.67-8.57L108.79-2.61L108.83-2.61Q108.74-3.91 108.74-4.69L108.74-4.69L108.74-8.57L110.81-8.57ZM121.67-4.29L121.67-4.29Q121.67-2.13 120.61-1.01Q119.55 0.12 117.51 0.12L117.51 0.12Q115.49 0.12 114.42-1.01Q113.34-2.14 113.34-4.31L113.34-4.31Q113.34-6.45 114.41-7.57Q115.48-8.70 117.52-8.70L117.52-8.70Q119.56-8.70 120.62-7.58Q121.67-6.46 121.67-4.29ZM115.78-4.29L115.78-4.29Q115.78-1.81 117.51-1.81L117.51-1.81Q118.39-1.81 118.81-2.41Q119.24-3.02 119.24-4.29L119.24-4.29Q119.24-5.58 118.81-6.19Q118.38-6.80 117.52-6.80L117.52-6.80Q115.78-6.80 115.78-4.29ZM127.84-4.20L129.03-8.57L131.62-8.57L128.81 0L126.09 0L123.29-8.57L125.90-8.57L127.06-4.22Q127.43-2.78 127.46-2.21L127.46-2.21Q127.50-2.62 127.63-3.23Q127.75-3.85 127.84-4.20L127.84-4.20ZM141.33 0L138.80 0L138.38-1.61L135.60-1.61L135.16 0L132.62 0L135.42-8.60L138.50-8.60L141.33 0ZM136.08-3.50L137.90-3.50L137.53-4.91Q137.40-5.38 137.22-6.12Q137.03-6.87 136.97-7.19L136.97-7.19Q136.92-6.89 136.77-6.21Q136.61-5.52 136.08-3.50L136.08-3.50ZM147.04-6.67L147.04 0L144.72 0L144.72-6.67L142.63-6.67L142.63-8.57L149.13-8.57L149.13-6.67L147.04-6.67ZM156.44-1.89L156.44 0L151.35 0L151.35-8.57L156.44-8.57L156.44-6.71L153.66-6.71L153.66-5.36L156.23-5.36L156.23-3.50L153.66-3.50L153.66-1.89L156.44-1.89Z" transform="translate(0, 8.701171875)"></path></g></g></g></g></g><defs v-gra="od"></defs><defs v-gra="id"><filter id="54dacf4f-021a-44f2-ac82-ea81fb7d314b" filterUnits="userSpaceOnUse"><feColorMatrix type="matrix" values="0 0 0 0 0.99609375  0 0 0 0 0.99609375  0 0 0 0 0.99609375  0 0 0 1 0"></feColorMatrix></filter><linearGradient x1="0" y1="1" x2="0" y2="0" id="C8DawzL1yhTJcqfKlk6IT"><stop offset="0%" stop-color="#00c5fb"></stop><stop offset="100%" stop-color="#175bea"></stop></linearGradient><filter id="42443b3f1de60f6b6fd3b6a9844b4764" filterUnits="objectBoundingBox"><feColorMatrix type="matrix" values="0 0 0 0 0.99609375  0 0 0 0 0.99609375  0 0 0 0 0.99609375  0 0 0 1 0"></feColorMatrix></filter></defs><mask v-gra="im" id="c8324958-c1d6-4d0f-9ced-9cadbc705543"><g class="iconsvg-imagesvg" filter="url(#54dacf4f-021a-44f2-ac82-ea81fb7d314b)"><g><rect fill="#333333" fill-opacity="0" stroke-width="2" x="0" y="0" width="60" height="66.62225183211193" class="image-rect"></rect> <svg x="0" y="0" width="60" height="66.62225183211193" filtersec="colorsb2706182027" class="image-svg-svg primary" style="overflow: visible;"><svg xmlns="http://www.w3.org/2000/svg" viewBox="0 0 90.05999755859375 100"><path fill="#07E0F2" d="M90.06 16.05L66.75 39.37 74.01 0l16.05 16.05z"></path><path fill="#07E0F2" d="M73.76 7.04v22.79H11.02l4.15-22.79h58.59zM79.11 76.68L55.79 100l7.26-39.37 16.06 16.05z"></path><path fill="#07E0F2" d="M62.8 67.67v22.8H0l4.14-22.8H62.8z"></path><path fill="#07E0F2" d="M49.18 38.59l-3.66 20.06H5.79l.1-.58 3.54-19.48h39.75z"></path></svg></svg> </g></g></mask></g></svg>