
<svg
  version="1.0"
  xmlns="http://www.w3.org/2000/svg"
  xmlns:xlink="http://www.w3.org/1999/xlink"
  width="2400"
  height="1800"
>
  
  <rect
    x="0"
    y="0"
    width="100%"
    height="100%"
    fill="#fff"
    fill-opacity="1"
  ></rect>
  <svg
    version="1.0"
    xmlns="http://www.w3.org/2000/svg"
    xmlns:xlink="http://www.w3.org/1999/xlink"
    x="0"
    y="0"
    width="2400"
    height="1800"
    viewBox="0 0 340.000000 250.000000"
    preserveAspectRatio="xMidYMid meet"
    color-interpolation-filters="sRGB"
  >
    <defs><linearGradient id="92" x1="0%" y1="0%" x2="100%" y2="0%"><stop offset="0%" stop-color="#fa71cd"/> <stop offset="100%" stop-color="#9b59b6"/></linearGradient><linearGradient id="93" x1="0%" y1="0%" x2="100%" y2="0%"><stop offset="0%" stop-color="#f9d423"/> <stop offset="100%" stop-color="#f83600"/></linearGradient><linearGradient id="94" x1="0%" y1="0%" x2="100%" y2="0%"><stop offset="0%" stop-color="#0064d2"/> <stop offset="100%" stop-color="#1cb0f6"/></linearGradient><linearGradient id="95" x1="0%" y1="0%" x2="100%" y2="0%"><stop offset="0%" stop-color="#f00978"/> <stop offset="100%" stop-color="#3f51b1"/></linearGradient><linearGradient id="96" x1="0%" y1="0%" x2="100%" y2="0%"><stop offset="0%" stop-color="#7873f5"/> <stop offset="100%" stop-color="#ec77ab"/></linearGradient><linearGradient id="97" x1="0%" y1="0%" x2="100%" y2="0%"><stop offset="0%" stop-color="#f9d423"/> <stop offset="100%" stop-color="#e14fad"/></linearGradient><linearGradient id="98" x1="0%" y1="0%" x2="100%" y2="0%"><stop offset="0%" stop-color="#009efd"/> <stop offset="100%" stop-color="#2af598"/></linearGradient><linearGradient id="99" x1="0%" y1="0%" x2="100%" y2="0%"><stop offset="0%" stop-color="#ffcc00"/> <stop offset="100%" stop-color="#00b140"/></linearGradient><linearGradient id="100" x1="0%" y1="0%" x2="100%" y2="0%"><stop offset="0%" stop-color="#d51007"/> <stop offset="100%" stop-color="#ff8177"/></linearGradient><linearGradient id="102" x1="0%" y1="0%" x2="100%" y2="0%"><stop offset="0%" stop-color="#a2b6df"/> <stop offset="100%" stop-color="#0c3483"/></linearGradient><linearGradient id="103" x1="0%" y1="0%" x2="100%" y2="0%"><stop offset="0%" stop-color="#7ac5d8"/> <stop offset="100%" stop-color="#eea2a2"/></linearGradient><linearGradient id="104" x1="0%" y1="0%" x2="100%" y2="0%"><stop offset="0%" stop-color="#00ecbc"/> <stop offset="100%" stop-color="#007adf"/></linearGradient><linearGradient id="105" x1="0%" y1="0%" x2="100%" y2="0%"><stop offset="0%" stop-color="#b88746"/> <stop offset="100%" stop-color="#fdf5a6"/></linearGradient></defs> <g fill="#000000" class="icon-text-wrapper icon-svg-group iconsvg" transform="translate(73.40499877929688,98.56362342834473)"><g class="iconsvg-imagesvg" transform="translate(0,0)"><g><rect fill="#000000" fill-opacity="0" stroke-width="2" x="0" y="0" width="60" height="52.87275290800141" class="image-rect"/> <svg x="0" y="0" width="60" height="52.87275290800141" filtersec="colorsb1574875698" class="image-svg-svg primary" style="overflow: visible;"><svg xmlns="http://www.w3.org/2000/svg" viewBox="0 0 113.4800033569336 100"><g><g><path fill="#1155EB" d="M84.94 62.54l-28.2-12.38-28.19 12.38L0 75.08 56.74 100l56.74-24.92-28.54-12.54z"/><path fill="#1E9FEA" opacity=".8" d="M84.94 37.46l-28.2-12.38-28.19 12.38L0 50l28.55 12.54 28.19 12.38 28.2-12.38L113.48 50 84.94 37.46z"/><path fill="#1E9FEA" opacity=".5" d="M56.74 0L0 24.92l28.55 12.54 28.19 12.38 28.2-12.38 28.54-12.54L56.74 0z"/></g></g></svg></svg> </g></g> <g transform="translate(67,6.501649856567383)"><g fill-rule="" class="tp-name iconsvg-namesvg" transform="translate(0,0)"><g transform="scale(1)"><g><path d="M5.4-12.84L12.67-12.84 12.04-12.18 30.42-12.18 29-1.98Q28.86-0.97 28.09-0.33 27.33 0.31 26.32 0.31L26.32 0.31 19.42 0.31 22.52-2.96 23.01-6.37 17.13 0.31 10.83 0.31 18.9-8.88 16.92-8.88 8.84 0.31 2.54 0.31 10.62-8.88 9.02-8.88 7.21-6.89 1.25-6.89 6.02-12.11 5.4-12.84ZM4.84-13.51L6.13-22.77 4.98-24.09 30.77-24.09 29.31-13.51 4.84-13.51ZM12.57-21.44L12.36-20.12 23.6-20.12 23.81-21.44 12.57-21.44ZM11.8-16.15L23.04-16.15 23.22-17.47 11.97-17.47 11.8-16.15ZM43.58 0.31L45.95-16.46 35.37-16.46 35.85-19.77 46.4-19.77 46.92-23.43 45.81-24.75 53.75-24.75 53.05-19.77 63.63-19.77 63.14-16.46 52.56-16.46 50.2 0.31 43.58 0.31ZM39.06-0.28L32.44-0.28 37.87-15.49 44.49-15.49 39.06-0.28ZM61.54-0.28L54.93-0.28 53.75-15.49 60.36-15.49 61.54-0.28ZM61.79-20.78L55.17-20.78 54.96-24.09 61.58-24.09 61.79-20.78ZM77.94-13.85L79.57-13.85 80.97-20.78 79.4-20.78 79.85-24.09 95.38-24.09 94.93-20.78 93.32-20.78 92.35-13.85 94.37-13.85 93.92-10.55 91.86-10.55 90.37 0.31 85 0.31 86.5-10.55 84.31-10.55 82.19 0.31 76.79 0.31 78.91-10.55 77.49-10.55 77.94-13.85ZM67.39-24.02L78.84-24.02 78.32-20.4 74.42-20.4 72.72-16.01 77.69-16.01 75.5-0.38 65.23-0.38 66.45-9.19 64.71-9.19 69.1-20.4 66.87-20.4 67.39-24.02ZM86.36-20.78L84.97-13.85 86.99-13.85 87.96-20.78 86.36-20.78ZM70.18-3.55L71.57-3.55 72.82-12.43 71.43-12.43 70.18-3.55ZM109.65-16.15L116.26-16.15 113.13-12.18 123.64-12.18 122.43-3.59 124.41-3.59 125.94-4.91 125.18 0.31 115.25 0.31 116.58-8.88 110.56-8.88 103.35 0.31 96.74 0.31 103.94-8.88 98.72-8.88 99.17-12.18 106.52-12.18 109.65-16.15ZM116.54-18.14L120.48-18.14 120.68-19.46 106.13-19.46 105.93-18.14 109.93-18.14 105.93-13.16 99.31-13.16 102.76-17.47 99.59-17.47 100.36-22.77 110.56-22.77 110.66-23.43 109.55-24.75 117.48-24.75 117.17-22.77 127.44-22.77 126.67-17.47 123.5-17.47 125.77-13.16 119.15-13.16 116.54-18.14Z" transform="translate(-1.25, 24.75)"/></g> </g></g> <g fill-rule="" class="tp-slogan iconsvg-slogansvg" fill="#333333" transform="translate(0.4550018310546875,31.060001373291016)"> <g transform="scale(1, 1)"><g transform="scale(1)"><path d="M2.52-8.57L3.98-5.39L5.46-8.57L7.97-8.57L5.15-3.35L5.15 0L2.82 0L2.82-3.28L0-8.57L2.52-8.57ZM11.22 0L8.89 0L8.89-8.57L11.22-8.57L11.22 0ZM18.67-2.60L18.67-2.60Q18.67-1.80 18.27-1.19Q17.87-0.57 17.10-0.23Q16.34 0.12 15.32 0.12L15.32 0.12Q14.46 0.12 13.88-0.00Q13.30-0.12 12.67-0.42L12.67-0.42L12.67-2.48Q13.34-2.14 14.05-1.95Q14.77-1.76 15.36-1.76L15.36-1.76Q15.88-1.76 16.12-1.94Q16.36-2.12 16.36-2.40L16.36-2.40Q16.36-2.58 16.26-2.71Q16.17-2.84 15.95-2.98Q15.74-3.11 14.81-3.53L14.81-3.53Q13.97-3.91 13.56-4.27Q13.14-4.62 12.93-5.09Q12.73-5.55 12.73-6.18L12.73-6.18Q12.73-7.37 13.59-8.03Q14.46-8.69 15.96-8.69L15.96-8.69Q17.29-8.69 18.67-8.07L18.67-8.07L17.96-6.29Q16.76-6.84 15.89-6.84L15.89-6.84Q15.44-6.84 15.23-6.68Q15.03-6.52 15.03-6.29L15.03-6.29Q15.03-6.04 15.29-5.84Q15.55-5.64 16.71-5.11L16.71-5.11Q17.81-4.61 18.24-4.04Q18.67-3.47 18.67-2.60ZM27.34-8.57L27.34 0L25.01 0L25.01-3.49L22.32-3.49L22.32 0L20.00 0L20.00-8.57L22.32-8.57L22.32-5.39L25.01-5.39L25.01-8.57L27.34-8.57ZM34.16-8.57L36.47-8.57L36.47-3.41Q36.47-1.73 35.52-0.81Q34.57 0.12 32.78 0.12L32.78 0.12Q31.03 0.12 30.08-0.78Q29.14-1.68 29.14-3.36L29.14-3.36L29.14-8.57L31.47-8.57L31.47-3.54Q31.47-2.63 31.81-2.22Q32.15-1.81 32.81-1.81L32.81-1.81Q33.52-1.81 33.84-2.22Q34.16-2.63 34.16-3.55L34.16-3.55L34.16-8.57ZM59.88-3.12L59.29-3.12L59.29 0L56.98 0L56.98-8.57L59.78-8.57Q63.28-8.57 63.28-6.04L63.28-6.04Q63.28-4.55 61.82-3.73L61.82-3.73L64.32 0L61.69 0L59.88-3.12ZM59.29-6.81L59.29-4.86L59.72-4.86Q60.94-4.86 60.94-5.93L60.94-5.93Q60.94-6.81 59.75-6.81L59.75-6.81L59.29-6.81ZM68.00-3.12L67.41-3.12L67.41 0L65.10 0L65.10-8.57L67.90-8.57Q71.40-8.57 71.40-6.04L71.40-6.04Q71.40-4.55 69.94-3.73L69.94-3.73L72.44 0L69.81 0L68.00-3.12ZM67.41-6.81L67.41-4.86L67.85-4.86Q69.06-4.86 69.06-5.93L69.06-5.93Q69.06-6.81 67.87-6.81L67.87-6.81L67.41-6.81ZM78.30-1.89L78.30 0L73.22 0L73.22-8.57L78.30-8.57L78.30-6.71L75.53-6.71L75.53-5.36L78.10-5.36L78.10-3.50L75.53-3.50L75.53-1.89L78.30-1.89ZM85.41-2.60L85.41-2.60Q85.41-1.80 85.00-1.19Q84.60-0.57 83.84-0.23Q83.07 0.12 82.05 0.12L82.05 0.12Q81.19 0.12 80.61-0.00Q80.03-0.12 79.41-0.42L79.41-0.42L79.41-2.48Q80.07-2.14 80.78-1.95Q81.50-1.76 82.10-1.76L82.10-1.76Q82.61-1.76 82.85-1.94Q83.09-2.12 83.09-2.40L83.09-2.40Q83.09-2.58 83.00-2.71Q82.90-2.84 82.68-2.98Q82.47-3.11 81.54-3.53L81.54-3.53Q80.71-3.91 80.29-4.27Q79.87-4.62 79.67-5.09Q79.46-5.55 79.46-6.18L79.46-6.18Q79.46-7.37 80.33-8.03Q81.19-8.69 82.69-8.69L82.69-8.69Q84.02-8.69 85.41-8.07L85.41-8.07L84.70-6.29Q83.50-6.84 82.62-6.84L82.62-6.84Q82.17-6.84 81.97-6.68Q81.76-6.52 81.76-6.29L81.76-6.29Q81.76-6.04 82.02-5.84Q82.28-5.64 83.44-5.11L83.44-5.11Q84.54-4.61 84.98-4.04Q85.41-3.47 85.41-2.60ZM91.82-1.89L91.82 0L86.73 0L86.73-8.57L91.82-8.57L91.82-6.71L89.04-6.71L89.04-5.36L91.61-5.36L91.61-3.50L89.04-3.50L89.04-1.89L91.82-1.89ZM101.10 0L98.57 0L98.15-1.61L95.37-1.61L94.93 0L92.39 0L95.19-8.60L98.27-8.60L101.10 0ZM95.85-3.50L97.67-3.50L97.30-4.91Q97.17-5.38 96.99-6.12Q96.80-6.87 96.74-7.19L96.74-7.19Q96.69-6.89 96.54-6.21Q96.38-5.52 95.85-3.50L95.85-3.50ZM104.93-3.12L104.34-3.12L104.34 0L102.03 0L102.03-8.57L104.84-8.57Q108.33-8.57 108.33-6.04L108.33-6.04Q108.33-4.55 106.88-3.73L106.88-3.73L109.37 0L106.75 0L104.93-3.12ZM104.34-6.81L104.34-4.86L104.78-4.86Q105.99-4.86 105.99-5.93L105.99-5.93Q105.99-6.81 104.80-6.81L104.80-6.81L104.34-6.81ZM113.96-6.79L113.96-6.79Q113.14-6.79 112.68-6.11Q112.21-5.44 112.21-4.25L112.21-4.25Q112.21-1.78 114.09-1.78L114.09-1.78Q114.66-1.78 115.20-1.93Q115.73-2.09 116.27-2.31L116.27-2.31L116.27-0.36Q115.20 0.12 113.84 0.12L113.84 0.12Q111.90 0.12 110.87-1.01Q109.83-2.13 109.83-4.26L109.83-4.26Q109.83-5.59 110.33-6.60Q110.84-7.61 111.78-8.15Q112.72-8.69 113.99-8.69L113.99-8.69Q115.38-8.69 116.64-8.09L116.64-8.09L115.93-6.26Q115.46-6.49 114.98-6.64Q114.51-6.79 113.96-6.79ZM125.28-8.57L125.28 0L122.95 0L122.95-3.49L120.26-3.49L120.26 0L117.94 0L117.94-8.57L120.26-8.57L120.26-5.39L122.95-5.39L122.95-8.57L125.28-8.57Z" transform="translate(0, 8.689453125)"/></g></g></g></g></g><defs v-gra="od"/>
  </svg>
</svg>


